# xmcd
#
# Track frame offsets:
#	150
#	19370
#	32488
#	45973
#	59026
#	73013
#	92205
#	106260
#	120238
#	134842
#	151618
#	190298
#	207466
#	222839
#	236695
#	253407
#	268984
#	285310
#	298153
#
# Disc length: 4211 seconds
#
# Revision: 0
# Processed by: cddbd v1.5.2PL0 Copyright (c) Steve Scherf et al.
# Submitted via: EasyCDDAExtractor 16.0.6.1
#
DISCID=28107113
DTITLE=Μαριώ-Τζώρτζης Γιώργος - Στο περιβόλι τ' ουρανού-Μαριώ, Γ. Τζώρτζης
DYEAR=2001
DGENRE=Ρεμπέτικη
TTITLE0=Τζώρτζης Γιώργος-Μαριώ - Πού θα με πας[Γ.Μουζάκη-Γ.Ασημ)λου/Π.Παπαδούκ
TTITLE0=α/Β.Σπυρ)λου]
TTITLE1=Μαριώ - Το ζάρι [Στράτου Παγιουμτζή]
TTITLE2=Μαριώ-Τζώρτζης Γιώργος - Βαγγελίτσα [Θ. Παπαδόπουλου-Κ. Κιούση/Σ. Πετρ
TTITLE2=ά]
TTITLE3=Τζώρτζης Γιώργος-Μαριώ - Πολυξένη [Γ. Ζαμπέτα-Θ. Σοφού]
TTITLE4=Μαριώ - Πράσινος μύλος [Μπάμπη Μαρκάκη]
TTITLE5=Μαριώ-Τζώρτζης Γιώργος-Λίβανος Δημήτρης - Κοσμογονία [Γ.Κων)νίδη/Κ.Καπ
TTITLE5=ετανάκη-Π.Παπαδούκα/Β.Σπυρ)λου]
TTITLE6=Μαριώ-Τζώρτζης Γιώργος - Να τι βγαίνει από κεί [Γιώργου Ροβερτάκη]
TTITLE7=Ζαφειροπούλου Μπέτη - Απόψε μ' εγκατέλειψες [Τ. Χρυσίνη-Χαρ. Βασιλειάδ
TTITLE7=η]
TTITLE8=Μαριώ-Τζώρτζης Γιώργος - Μεσάνυχτα βαθειά σκοτεινιασμένα [Γ. Λαύκα-Χρ.
TTITLE8=Κολοκοτρώνη]
TTITLE9=Τζώρτζης Γιώργος - Το μπαγλαμαδάκι σπάσε [Αντ. Διαμαντίδη-Γ. Καμβύση]
TTITLE10=Μαριώ - Μανάκι μου [παραδοσιακό]
TTITLE11=Κουρούνης Ζαχαρίας-Μαριώ - Της τριανταφυλλιάς τα φύλλα [παραδοσιακό]
TTITLE12=Μαριώ-Κουρούνης Ζαχαρίας - Πώς θα περάσει η βραδιά [Γ. Παπαϊωάννου-Αλ
TTITLE12=Αγγελόπουλου]
TTITLE13=Μαριώ - Κατηφές [παραδοσιακό]
TTITLE14=Μαριώ-Κουρούνης Ζαχαρίας - Δεν θα λυγίσω [Δημήτρη Λίβανου]
TTITLE15=Μαριώ - Χαράμι [Μ. Σουγιούλ-Μ. Τραϊφόρου]
TTITLE16=Μαριώ - Άσ' τα κόλπα [Παναγιώτη Τούντα]
TTITLE17=Τζώρτζης Γιώργος-Μαριώ - 'Οταν συμβεί στα πέριξ [Βασίλη Τσιτσάνη]
TTITLE18=Μαριώ-Κουρούνης Ζαχαρίας - Ας μη ξημέρωνε ποτέ [Απ. Χατζηχρήστου-Κ. Μ
TTITLE18=άνεση]
EXTD=
EXTT0=
EXTT1=
EXTT2=
EXTT3=
EXTT4=
EXTT5=
EXTT6=
EXTT7=
EXTT8=
EXTT9=
EXTT10=
EXTT11=
EXTT12=
EXTT13=
EXTT14=
EXTT15=
EXTT16=
EXTT17=
EXTT18=
PLAYORDER=
